HIERARCHY
ROOT Hips
{
  OFFSET 53.3167 97.2125 37.1021
  CHANNELS 6 Xposition Yposition Zposition Zrotation Xrotation Yrotation
  JOINT spine
  {
    OFFSET 0 7.96568 0.458067
    CHANNELS 3 Zrotation Xrotation Yrotation
    JOINT spine1
    {
      OFFSET 0 10.2431 0
      CHANNELS 3 Zrotation Xrotation Yrotation
      JOINT spine2
      {
        OFFSET 0 9.81475 0
        CHANNELS 3 Zrotation Xrotation Yrotation
        JOINT Neck
        {
          OFFSET 0 25.1986 1.20138
          CHANNELS 3 Zrotation Xrotation Yrotation
          JOINT Head
          {
            OFFSET 0 7.61315 0
            CHANNELS 3 Zrotation Xrotation Yrotation
            End Site
            {
              OFFSET 0 18.4281 -6.07733
            }
          }
        }
        JOINT RightShoulder
        {
          OFFSET -4.1327 10.5992 -0.575451
          CHANNELS 3 Zrotation Xrotation Yrotation
          JOINT RightArm
          {
            OFFSET 0 13.9018 0
            CHANNELS 3 Zrotation Xrotation Yrotation
            JOINT RightArmRoll
            {
              OFFSET 0 7.01789 0
              CHANNELS 3 Zrotation Xrotation Yrotation
              JOINT RightForeArm
              {
                OFFSET 0 20.4406 0
                CHANNELS 3 Zrotation Xrotation Yrotation
                JOINT RightForeArmRoll
                {
                  OFFSET 0 7.87516 0
                  CHANNELS 3 Zrotation Xrotation Yrotation
                  JOINT RightHand
                  {
                    OFFSET 0 15.8037 0
                    CHANNELS 3 Zrotation Xrotation Yrotation
                    End Site
                    {
                      OFFSET 0 0 0
                    }
                  }
                }
              }
            }
          }
        }
        JOINT LeftShoulder
        {
          OFFSET 4.1327 10.5992 -0.575451
          CHANNELS 3 Zrotation Xrotation Yrotation
          JOINT LeftArm
          {
            OFFSET 0 13.9018 0
            CHANNELS 3 Zrotation Xrotation Yrotation
            JOINT LeftArmRoll
            {
              OFFSET 0 7.01789 0
              CHANNELS 3 Zrotation Xrotation Yrotation
              JOINT LeftForeArm
              {
                OFFSET 0 20.4406 0
                CHANNELS 3 Zrotation Xrotation Yrotation
                JOINT LeftForeArmRoll
                {
                  OFFSET 0 7.87515 0
                  CHANNELS 3 Zrotation Xrotation Yrotation
                  JOINT LeftHand
                  {
                    OFFSET 0 15.8037 0
                    CHANNELS 3 Zrotation Xrotation Yrotation
                    End Site
                    {
                      OFFSET 0 0 0
                    }
                  }
                }
              }
            }
          }
        }
      }
    }
  }
  JOINT RightUpLeg
  {
    OFFSET -7.06048 -1.2947 -1.0861
    CHANNELS 3 Zrotation Xrotation Yrotation
    JOINT RightUpLegRoll
    {
      OFFSET 0 18.5308 0
      CHANNELS 3 Zrotation Xrotation Yrotation
      JOINT RightLeg
      {
        OFFSET 0 -22.9476 0
        CHANNELS 3 Zrotation Xrotation Yrotation
        JOINT RightLegRoll
        {
          OFFSET 0 23.0226 0
          CHANNELS 3 Zrotation Xrotation Yrotation
          JOINT RightFoot
          {
            OFFSET 0 19.1625 0
            CHANNELS 3 Zrotation Xrotation Yrotation
            JOINT RightToeBase
            {
              OFFSET 0 16.0188 0
              CHANNELS 3 Zrotation Xrotation Yrotation
              End Site
              {
                OFFSET 0.00678979 7.75782 -0.894207
              }
            }
          }
        }
      }
    }
  }
  JOINT LeftUpLeg
  {
    OFFSET 7.06048 -1.2947 -1.0861
    CHANNELS 3 Zrotation Xrotation Yrotation
    JOINT LeftUpLegRoll
    {
      OFFSET 0 18.5309 0
      CHANNELS 3 Zrotation Xrotation Yrotation
      JOINT LeftLeg
      {
        OFFSET 0 22.9475 0
        CHANNELS 3 Zrotation Xrotation Yrotation
        JOINT LeftLegRoll
        {
          OFFSET 0 23.2355 0
          CHANNELS 3 Zrotation Xrotation Yrotation
          JOINT LeftFoot
          {
            OFFSET 0 18.9496 0
            CHANNELS 3 Zrotation Xrotation Yrotation
            JOINT LeftToeBase
            {
              OFFSET 0 16.0188 0
              CHANNELS 3 Zrotation Xrotation Yrotation
              End Site
              {
                OFFSET -0.0304289 7.75782 -0.894206
              }
            }
          }
        }
      }
    }
  }
}
MOTION
Frames: 8
Frame Time: 0.00208333
53.0383 78.0435 14.7641 0.379044 21.2565 -0.622545 0.0704655 2.91784 -0.240711 0.156412 9.83817 -0.495849 0.162983 11.4832 -0.499693 -15.3411 -38.8766 -6.26507 10.9774 25.5927 -4.37035 51.7334 -6.29706 -3.543 126.538 38.5417 -39.4339 -7.87365e-006 4.66086e-006 -6.50884e-006 22.0751 41.1986 -10.1754 -1.04784e-006 9.62233e-007 -2.99999 8.02911 -4.95149 0.697676 -60.3621 -13.3942 8.31701 -114.971 35.3335 41.2162 -4.77083e-015 3.18055e-015 -3.18055e-015 -28.74 55.6713 18.8295 3.88382e-006 2.90351e-006 2.99997 -8.02904 -4.95115 -0.697551 172.193 73.6255 7.67628 180 1.52566e-005 179.032 179.576 71.1897 177.991 -1.73641e-006 -6.72669e-007 1.59741 -27.3236 75.4407 28.8885 8.45842 30.7307 -3.03071 -160.483 74.2589 -17.6999 4.5067e-006 -1.99009e-005 -0.927635 0.934163 -71.1808 2.44432 -2.55644e-006 -1.13722e-006 -1.87563 23.9345 73.277 -25.2795 -8.13501 27.9382 -0.124803 
53.042 78.2199 14.8747 0.38138 21.1649 -0.615125 0.0685625 2.89938 -0.23757 0.151922 9.80125 -0.489015 0.158393 11.4463 -0.492761 -15.2647 -38.9165 -6.26074 10.9455 25.6037 -4.37338 51.7846 -6.2662 -3.5239 126.605 38.5876 -39.2556 -7.87365e-006 4.66086e-006 -6.50884e-006 22.0701 40.6956 -10.0381 -1.04784e-006 9.62233e-007 -2.99999 8.02911 -4.95149 0.697676 -60.5392 -13.2833 8.24408 -114.932 35.4962 40.9325 -7.15625e-015 4.77083e-015 6.36111e-015 -28.5146 55.0005 18.4036 3.88382e-006 2.90351e-006 2.99997 -8.02904 -4.95115 -0.697551 172.359 73.2539 7.48067 180 1.52566e-005 179.033 179.515 70.8848 178.041 -1.73641e-006 -6.72669e-007 1.58743 -27.2622 75.4067 28.8233 8.45955 30.7463 -3.02995 -161.006 73.9088 -17.1497 4.5067e-006 -1.99009e-005 -0.92769 0.848108 -70.8645 2.37001 -2.55644e-006 -1.13722e-006 -1.8615 23.9014 73.2511 -25.2426 -8.13501 27.9386 -0.12534 
53.0564 78.4029 14.974 0.383151 21.0734 -0.60728 0.0665997 2.88068 -0.234521 0.147285 9.76387 -0.482342 0.153657 11.4089 -0.485989 -15.1839 -38.9581 -6.25535 10.9125 25.6172 -4.37616 51.8361 -6.23177 -3.5023 126.661 38.625 -39.0701 -7.87365e-006 4.66086e-006 -6.50884e-006 22.0649 40.2152 -9.9075 -1.04784e-006 9.62233e-007 -2.99999 8.02911 -4.95149 0.697676 -60.7265 -13.1603 8.16361 -114.867 35.659 40.6341 -7.15625e-015 3.18055e-015 3.18055e-015 -28.2864 54.3312 17.9806 3.88382e-006 2.90351e-006 2.99997 -8.02904 -4.95115 -0.697551 172.522 72.8819 7.2884 180 1.52566e-005 179.035 179.457 70.5785 178.09 -1.73641e-006 -6.72669e-007 1.57748 -27.1996 75.3719 28.7569 8.46066 30.7614 -3.02882 -161.507 73.5567 -16.6222 4.5067e-006 -1.99009e-005 -0.927746 0.764965 -70.5462 2.29852 -2.55644e-006 -1.13722e-006 -1.84725 23.8679 73.2247 -25.2053 -8.135 27.9387 -0.125596 
53.0467 78.5791 15.0745 0.384403 20.9819 -0.598926 0.0646098 2.8618 -0.231564 0.142575 9.72611 -0.475843 0.148849 11.3712 -0.47939 -15.0997 -39.0012 -6.24909 10.8791 25.633 -4.37877 51.8881 -6.19445 -3.47868 126.708 38.6549 -38.8783 -7.87365e-006 4.66086e-006 -6.50884e-006 22.0587 39.7542 -9.78223 -1.04784e-006 9.62233e-007 -2.99999 8.02911 -4.95149 0.697676 -60.9209 -13.0282 8.07752 -114.783 35.8216 40.3245 2.38542e-015 -1.59028e-015 -0 -28.0563 53.6624 17.561 3.88382e-006 2.90351e-006 2.99997 -8.02904 -4.95115 -0.697551 172.68 72.5092 7.1001 180 1.52566e-005 179.036 179.401 70.2708 178.136 -1.73641e-006 -6.72669e-007 1.56754 -27.136 75.3364 28.6893 8.46174 30.7761 -3.02737 -161.986 73.2027 -16.1155 4.5067e-006 -1.99009e-005 -0.927802 0.684871 -70.226 2.22992 -2.55644e-006 -1.13722e-006 -1.83291 23.8339 73.1977 -25.1675 -8.13497 27.9387 -0.125589 
53.0526 78.7565 15.1729 0.385183 20.8903 -0.589976 0.0626252 2.84275 -0.228696 0.137863 9.68804 -0.469528 0.144042 11.3331 -0.472976 -15.0133 -39.0454 -6.24214 10.8462 25.6508 -4.38132 51.9406 -6.15497 -3.45358 126.747 38.678 -38.6813 -7.87365e-006 4.66086e-006 -6.50884e-006 22.0508 39.3096 -9.66107 -1.04784e-006 9.62233e-007 -2.99999 8.02911 -4.95149 0.697676 -61.1196 -12.8898 7.98771 -114.685 35.9837 40.007 1.11319e-014 -6.36111e-015 6.36111e-015 -27.8253 52.9928 17.1453 3.88382e-006 2.90351e-006 2.99997 -8.02904 -4.95115 -0.697551 172.834 72.1358 6.91635 180 1.52566e-005 179.037 179.348 69.9617 178.181 -1.73641e-006 -6.72669e-007 1.55761 -27.0712 75.3 28.6205 8.46279 30.7906 -3.02565 -162.446 72.847 -15.6277 4.5067e-006 -1.99009e-005 -0.927859 0.607955 -69.904 2.16425 -2.55644e-006 -1.13722e-006 -1.8185 23.7993 73.1702 -25.129 -8.13494 27.9386 -0.125337 
53.0501 78.9236 15.2816 0.385539 20.7984 -0.580345 0.0606784 2.82358 -0.225918 0.133222 9.64971 -0.463411 0.139309 11.2948 -0.466761 -14.9257 -39.0902 -6.23471 10.8146 25.6707 -4.38389 51.9937 -6.11401 -3.42748 126.779 38.6955 -38.48 -7.87365e-006 4.66086e-006 -6.50884e-006 22.0404 38.8781 -9.54286 -1.04784e-006 9.62233e-007 -2.99999 8.02911 -4.95149 0.697676 -61.3197 -12.7481 7.89607 -114.582 36.145 39.685 7.15625e-015 -7.95139e-015 -0 -27.5942 52.3215 16.734 3.88382e-006 2.90351e-006 2.99997 -8.02904 -4.95115 -0.697551 172.983 71.7617 6.73767 180 1.52566e-005 179.039 179.297 69.6513 178.224 -1.73641e-006 -6.72669e-007 1.54767 -27.0054 75.2629 28.5506 8.46381 30.8048 -3.02374 -162.889 72.4896 -15.1574 4.5067e-006 -1.99009e-005 -0.927916 0.534339 -69.5804 2.10156 -2.55644e-006 -1.13722e-006 -1.80403 23.7641 73.1421 -25.0898 -8.1349 27.9382 -0.124857 
53.0527 79.0958 15.3814 0.385518 20.7062 -0.569948 0.0588018 2.80432 -0.223226 0.128725 9.61121 -0.457501 0.134724 11.2563 -0.460756 -14.8381 -39.1354 -6.22697 10.7849 25.6924 -4.38656 52.0474 -6.07228 -3.4009 126.804 38.7081 -38.2753 -7.87365e-006 4.66086e-006 -6.50884e-006 22.027 38.4565 -9.42653 -1.04784e-006 9.62233e-007 -2.99999 8.02911 -4.95149 0.697676 -61.5183 -12.606 7.80449 -114.479 36.3053 39.3619 3.97569e-015 -1.27222e-014 -0 -27.3639 51.6475 16.3275 3.88382e-006 2.90351e-006 2.99997 -8.02904 -4.95115 -0.697551 173.126 71.3867 6.56457 180 1.52566e-005 179.04 179.248 69.3396 178.265 -1.73641e-006 -6.72669e-007 1.53773 -26.9385 75.225 28.4796 8.4648 30.8188 -3.02169 -163.316 72.1307 -14.7029 4.5067e-006 -1.99009e-005 -0.927972 0.464138 -69.2553 2.04188 -2.55644e-006 -1.13722e-006 -1.78952 23.7281 73.1133 -25.0497 -8.13485 27.9377 -0.124167 
53.0528 79.2755 15.4857 0.385169 20.6135 -0.5587 0.057028 2.785 -0.220621 0.124445 9.57259 -0.451811 0.130358 11.2177 -0.454976 -14.7515 -39.1805 -6.21912 10.758 25.7158 -4.38944 52.1019 -6.03049 -3.37434 126.825 38.7169 -38.0683 -7.87365e-006 4.66086e-006 -6.50884e-006 22.0101 38.0419 -9.31108 -1.04784e-006 9.62233e-007 -2.99999 8.02911 -4.95149 0.697676 -61.7127 -12.4667 7.71483 -114.383 36.4644 39.0412 4.77083e-015 -9.54166e-015 -3.18055e-015 -27.1355 50.9697 15.9264 3.88382e-006 2.90351e-006 2.99997 -8.02904 -4.95115 -0.697551 173.264 71.0108 6.39751 180 1.52567e-005 179.042 179.2 69.0267 178.304 -1.73641e-006 -6.72669e-007 1.52778 -26.8707 75.1864 28.4075 8.46575 30.8326 -3.01956 -163.728 71.7703 -14.2627 4.5067e-006 -1.99009e-005 -0.92803 0.397467 -68.9287 1.98524 -2.55644e-006 -1.13722e-006 -1.77501 23.6913 73.0836 -25.0087 -8.13479 27.937 -0.123285 
